<svg id="visual" viewBox="0 0 900 600" width="900" height="600" xmlns="http://www.w3.org/2000/svg" xmlns:xlink="http://www.w3.org/1999/xlink" version="1.1"><rect x="0" y="0" width="900" height="600" fill="#C62368"></rect><g fill="#FF6F61"><path d="M0 -111.4L25 -34.4L105.9 -34.4L40.5 13.1L65.5 90.1L0 42.5L-65.5 90.1L-40.5 13.1L-105.9 -34.4L-25 -34.4Z" transform="translate(453 368)"></path><path d="M0 -49.1L11 -15.2L46.7 -15.2L17.8 5.8L28.8 39.7L0 18.7L-28.8 39.7L-17.8 5.8L-46.7 -15.2L-11 -15.2Z" transform="translate(124 524)"></path><path d="M0 -101L22.7 -31.2L96 -31.2L36.7 11.9L59.4 81.7L0 38.6L-59.4 81.7L-36.7 11.9L-96 -31.2L-22.7 -31.2Z" transform="translate(693 137)"></path><path d="M0 -102.9L23.1 -31.8L97.8 -31.8L37.4 12.1L60.5 83.2L0 39.3L-60.5 83.2L-37.4 12.1L-97.8 -31.8L-23.1 -31.8Z" transform="translate(174 258)"></path><path d="M0 -81.2L18.2 -25.1L77.2 -25.1L29.5 9.6L47.7 65.7L0 31L-47.7 65.7L-29.5 9.6L-77.2 -25.1L-18.2 -25.1Z" transform="translate(898 311)"></path><path d="M0 -93.4L21 -28.9L88.9 -28.9L33.9 11L54.9 75.6L0 35.7L-54.9 75.6L-33.9 11L-88.9 -28.9L-21 -28.9Z" transform="translate(572 580)"></path></g></svg>